<svg width="15" height="14" viewBox="0 0 15 14" fill="none" xmlns="http://www.w3.org/2000/svg">
<path d="M4.10785 8.51037C4.29274 8.51037 4.45033 8.44524 4.5806 8.31497C4.71074 8.18482 4.77581 8.02724 4.77581 7.84222C4.77581 7.65733 4.71074 7.49981 4.5806 7.36966C4.45033 7.23939 4.29274 7.17426 4.10785 7.17426C3.92296 7.17426 3.76537 7.23939 3.6351 7.36966C3.50483 7.49981 3.4397 7.65733 3.4397 7.84222C3.4397 8.02724 3.50483 8.18482 3.6351 8.31497C3.76537 8.44524 3.92296 8.51037 4.10785 8.51037ZM4.10785 6.33185C4.29274 6.33185 4.45033 6.26678 4.5806 6.13663C4.71074 6.00636 4.77581 5.84878 4.77581 5.66389C4.77581 5.47899 4.71074 5.32141 4.5806 5.19114C4.45033 5.061 4.29274 4.99593 4.10785 4.99593C3.92296 4.99593 3.76537 5.061 3.6351 5.19114C3.50483 5.32141 3.4397 5.47899 3.4397 5.66389C3.4397 5.84878 3.50483 6.00636 3.6351 6.13663C3.76537 6.26678 3.92296 6.33185 4.10785 6.33185ZM4.10785 4.15352C4.29274 4.15352 4.45033 4.08838 4.5806 3.95811C4.71074 3.82797 4.77581 3.67045 4.77581 3.48556C4.77581 3.30054 4.71074 3.14296 4.5806 3.01281C4.45033 2.88254 4.29274 2.81741 4.10785 2.81741C3.92296 2.81741 3.76537 2.88254 3.6351 3.01281C3.50483 3.14296 3.4397 3.30054 3.4397 3.48556C3.4397 3.67045 3.50483 3.82797 3.6351 3.95811C3.76537 4.08838 3.92296 4.15352 4.10785 4.15352ZM6.40248 8.40861H9.90239V7.27602H6.40248V8.40861ZM6.40248 6.23028H12.1679V5.0975H6.40248V6.23028ZM6.40248 4.05176H12.1679V2.91917H6.40248V4.05176ZM0.651367 14V1.36519C0.651367 0.983692 0.783525 0.660787 1.04784 0.396472C1.31215 0.132157 1.63506 0 2.01655 0H13.6347C14.0162 0 14.3391 0.132157 14.6034 0.396472C14.8677 0.660787 14.9999 0.983692 14.9999 1.36519V9.96259C14.9999 10.3441 14.8677 10.667 14.6034 10.9313C14.3391 11.1956 14.0162 11.3278 13.6347 11.3278H3.32359L0.651367 14ZM2.8414 10.195H13.6347C13.6928 10.195 13.7461 10.1708 13.7944 10.1223C13.8429 10.074 13.8671 10.0207 13.8671 9.96259V1.36519C13.8671 1.30704 13.8429 1.2538 13.7944 1.20546C13.7461 1.15701 13.6928 1.13278 13.6347 1.13278H2.01655C1.9584 1.13278 1.90516 1.15701 1.85683 1.20546C1.80837 1.2538 1.78414 1.30704 1.78414 1.36519V11.2407L2.8414 10.195Z" fill="#273A60"/>
</svg>
