<svg width="15" height="15" viewBox="0 0 15 15" fill="none" xmlns="http://www.w3.org/2000/svg">
<path d="M0.555656 7.46121C0.527445 7.82796 0.80956 8.1665 1.17631 8.1665C1.54306 8.19471 1.8816 7.91259 1.90981 7.54584V7.32015C1.99445 5.76851 3.29218 4.55542 4.84382 4.55542H10.8811L9.32946 6.10705C9.04734 6.38917 9.04734 6.81234 9.32946 7.06625C9.58336 7.34836 10.0065 7.34836 10.2887 7.06625L12.997 4.35793C13.2509 4.10403 13.2509 3.68086 12.997 3.39874L10.2887 0.690428C10.0065 0.436524 9.58336 0.436524 9.32946 0.690428C9.04734 0.972544 9.04734 1.39572 9.32946 1.64962L10.8811 3.20126H4.84382C2.58689 3.20126 0.696714 4.97859 0.555656 7.23552V7.46121ZM14.9718 7.54584C15 7.17909 14.7179 6.84055 14.3511 6.81234C13.9844 6.81234 13.6458 7.09446 13.6458 7.46121L13.6176 7.6869C13.533 9.23854 12.2353 10.4234 10.6836 10.4234H4.64634L6.19797 8.87179C6.48009 8.61788 6.48009 8.19471 6.19797 7.94081C5.94407 7.65869 5.5209 7.65869 5.26699 7.94081L2.55868 10.6209C2.27656 10.903 2.27656 11.3262 2.55868 11.5801L5.26699 14.2884C5.5209 14.5705 5.94407 14.5705 6.19797 14.2884C6.48009 14.0345 6.48009 13.6113 6.19797 13.3292L4.64634 11.7776H10.6836C12.9688 11.7776 14.8307 10.0285 14.9718 7.77154L15 7.54584H14.9718Z" fill="#193154"/>
</svg>
