<svg width="24" height="24" viewBox="0 0 24 24" fill="none" xmlns="http://www.w3.org/2000/svg">
<path d="M3.5 11.9905L5 11.9905L5 18.6922C5 18.7692 5.03208 18.8398 5.09625 18.9037C5.16025 18.9679 5.23075 19 5.30775 19L18.6922 19C18.7692 19 18.8397 18.9679 18.9037 18.9038C18.9679 18.8398 19 18.7692 19 18.6923L19 11.9905L20.5 11.9905L20.5 18.6923C20.5 19.1974 20.325 19.625 19.975 19.975C19.625 20.325 19.1974 20.5 18.6922 20.5L5.30775 20.5C4.80258 20.5 4.375 20.325 4.025 19.975C3.675 19.625 3.5 19.1974 3.5 18.6922L3.5 11.9905ZM7.73075 10.6347L8.8155 9.59625L11.25 12.0307L11.25 3.5L12.75 3.5L12.75 12.0307L15.1845 9.59625L16.2693 10.6348L12 14.9038L7.73075 10.6347Z" fill="#273A60"/>
</svg>
