<svg width="26" height="25" viewBox="0 0 26 25" fill="none" xmlns="http://www.w3.org/2000/svg">
<path d="M4.25 5.9375C4.25 5.42969 4.64062 5 5.1875 5H20.8125C21.3203 5 21.75 5.42969 21.75 5.9375C21.75 6.48438 21.3203 6.875 20.8125 6.875H5.1875C4.64062 6.875 4.25 6.48438 4.25 5.9375ZM4.25 12.1875C4.25 11.6797 4.64062 11.25 5.1875 11.25H20.8125C21.3203 11.25 21.75 11.6797 21.75 12.1875C21.75 12.7344 21.3203 13.125 20.8125 13.125H5.1875C4.64062 13.125 4.25 12.7344 4.25 12.1875ZM21.75 18.4375C21.75 18.9844 21.3203 19.375 20.8125 19.375H5.1875C4.64062 19.375 4.25 18.9844 4.25 18.4375C4.25 17.9297 4.64062 17.5 5.1875 17.5H20.8125C21.3203 17.5 21.75 17.9297 21.75 18.4375Z" fill="#273A60"/>
</svg>
