<svg width="27" height="27" viewBox="0 0 27 27" fill="none" xmlns="http://www.w3.org/2000/svg">
<rect width="27" height="27" rx="6" fill="#F4F4F3"/>
<path d="M17.3314 10.518C17.5562 10.2931 17.5562 9.91842 17.3314 9.6936C17.0816 9.44379 16.7069 9.44379 16.482 9.6936L13.5094 12.6663L10.5367 9.66862C10.2869 9.44379 9.91218 9.44379 9.68735 9.66862C9.43755 9.91842 9.43755 10.2931 9.68735 10.518L12.66 13.4906L9.68735 16.4633C9.43755 16.7131 9.43755 17.0878 9.68735 17.3126C9.91218 17.5625 10.2869 17.5625 10.5117 17.3126L13.4844 14.34L16.482 17.3126C16.7069 17.5625 17.0816 17.5625 17.3064 17.3126C17.5562 17.0878 17.5562 16.7131 17.3064 16.4883L14.3337 13.5156L17.3314 10.518Z" fill="#273A60"/>
</svg>
