<svg width="24" height="24" viewBox="0 0 24 24" fill="none" xmlns="http://www.w3.org/2000/svg">
<path d="M20.5 18.6922C20.5 19.1974 20.325 19.625 19.975 19.975C19.625 20.325 19.1974 20.5 18.6923 20.5L5.30775 20.5C4.80258 20.5 4.375 20.325 4.025 19.975C3.675 19.625 3.5 19.1974 3.5 18.6923L3.5 11.9905L5 11.9905L5 18.6922C5 18.7692 5.03208 18.8397 5.09625 18.9037C5.16025 18.9679 5.23075 19 5.30775 19L18.6923 19C18.7692 19 18.8398 18.9679 18.9038 18.9037C18.9679 18.8397 19 18.7692 19 18.6922L19 11.9905L20.5 11.9905L20.5 18.6922ZM16.2692 7.76925L15.1845 8.80775L12.75 6.373L12.75 14.9037L11.25 14.9037L11.25 6.373L8.8155 8.80775L7.73075 7.76925L12 3.5L16.2692 7.76925Z" fill="#273A60"/>
</svg>
